<svg width="167" height="144" viewBox="0 0 167 144" fill="none" xmlns="http://www.w3.org/2000/svg">
<g clip-path="url(#clip0_2204_573)">
<path d="M116.106 61.4478V72.5292C116.106 74.6162 117.06 76.5562 118.696 78.0259V81.7883C118.696 83.4049 120.196 84.6983 122.071 84.6983C123.946 84.6983 125.446 83.4049 125.446 81.7883V76.6738C125.446 75.7038 124.866 74.7926 123.946 74.2635C123.264 73.8814 122.855 73.2347 122.855 72.5292V61.4478C122.855 57.5678 126.537 54.3933 131.037 54.3933H133.798C138.297 54.3933 141.979 57.5678 141.979 61.4478V72.5292C141.979 73.2347 141.57 73.8814 140.888 74.2635C139.934 74.7926 139.388 75.7038 139.388 76.6738V87.3437C139.388 88.637 140.275 89.8422 141.604 90.4007C143.206 91.0767 151.524 94.6921 159.228 100.13C159.875 100.6 160.25 101.276 160.25 102.041V106.714H136.593C134.718 106.714 133.218 108.008 133.218 109.624C133.218 111.241 134.718 112.534 136.593 112.534H163.625C165.5 112.534 167 111.241 167 109.624V102.041C167 99.5421 165.739 97.22 163.489 95.6327C156.705 90.8416 149.444 87.3437 146.138 85.8446V77.9965C147.774 76.5268 148.728 74.5868 148.728 72.4999V61.4184C148.728 54.3051 142.013 48.5439 133.798 48.5439H131.037C122.821 48.5733 116.106 54.3345 116.106 61.4478Z" fill="white"/>
<path d="M3.37477 112.534H30.8161C32.691 112.534 34.1909 111.241 34.1909 109.624C34.1909 108.007 32.691 106.714 30.8161 106.714H6.74954V102.04C6.74954 101.306 7.12451 100.6 7.7722 100.13C15.4421 94.692 23.7938 91.0472 25.396 90.4006C26.7595 89.8421 27.6118 88.6369 27.6118 87.3436V76.6737C27.6118 75.7037 27.0322 74.7925 26.1119 74.2634C25.4301 73.8813 25.021 73.2346 25.021 72.5292V61.4477C25.021 57.5677 28.7026 54.3932 33.2023 54.3932H35.9635C40.4632 54.3932 44.1447 57.5677 44.1447 61.4477V72.5292C44.1447 73.2346 43.7357 73.8813 43.0539 74.2634C42.0994 74.7925 41.554 75.7037 41.554 76.6737V82.0233C41.554 83.64 43.0539 84.9333 44.9288 84.9333C46.8036 84.9333 48.3035 83.64 48.3035 82.0233V78.0258C49.9398 76.5561 50.8943 74.6161 50.8943 72.5292V61.4477C50.8943 54.3344 44.1788 48.5732 35.9635 48.5732H33.2023C24.9528 48.5732 18.2715 54.3638 18.2715 61.4477V72.5292C18.2715 74.6161 19.226 76.5561 20.8622 78.0258V85.8739C17.5215 87.373 10.2948 90.8415 3.51112 95.662C1.29537 97.2493 0 99.5714 0 102.07V109.624C0 111.241 1.4999 112.534 3.37477 112.534Z" fill="white"/>
<path d="M103.766 61.5947V47.2799C103.766 38.55 95.5504 31.4661 85.4261 31.4661H81.8468C71.7224 31.4661 63.5071 38.55 63.5071 47.2799V61.5947C63.5071 64.1813 64.7343 66.5916 66.8478 68.3552V79.3779C62.8594 81.1415 53.1101 85.7269 44.0084 92.1936C41.3495 94.0748 39.8496 96.8378 39.8496 99.8065V109.624C39.8496 111.241 41.3495 112.534 43.2244 112.534H124.014C125.889 112.534 127.389 111.241 127.389 109.624V99.8065C127.389 96.8378 125.889 94.0748 123.23 92.1936C114.129 85.7563 104.379 81.1415 100.391 79.3779V68.3552C102.539 66.621 103.766 64.1813 103.766 61.5947ZM118.969 96.6908C120.06 97.455 120.674 98.6014 120.674 99.8065V106.714H46.6332V99.8065C46.6332 98.6014 47.2468 97.455 48.3377 96.6908C58.3597 89.5775 69.234 84.8451 71.3134 83.9633C72.711 83.3754 73.6314 82.1115 73.6314 80.7888V66.9737C73.6314 66.0037 73.0519 65.0925 72.1315 64.5634C70.9725 63.8874 70.2907 62.7998 70.2907 61.6241V47.3093C70.2907 41.7833 75.5063 37.3154 81.8808 37.3154H85.4601C91.8688 37.3154 97.0503 41.8127 97.0503 47.3093V61.6241C97.0503 62.7998 96.3685 63.9168 95.2095 64.5634C94.255 65.0925 93.7096 66.0037 93.7096 66.9737V80.7888C93.7096 82.1409 94.63 83.3754 96.0276 83.9633C98.0729 84.8451 108.947 89.6069 118.969 96.6908Z" fill="#BBD6CC"/>
</g>
<defs>
<clipPath id="clip0_2204_573">
<rect width="167" height="144" fill="white"/>
</clipPath>
</defs>
</svg>
