<svg width="50" height="50" viewBox="0 0 50 50" fill="none" xmlns="http://www.w3.org/2000/svg">
<path d="M34.1876 8.33345C38.2292 8.33345 41.4792 11.6043 41.4792 15.6251C41.4792 19.5626 38.3543 22.771 34.4584 22.9168C34.2785 22.8959 34.0967 22.8959 33.9167 22.9168M38.2084 41.6668C39.7084 41.3543 41.1251 40.7501 42.2917 39.8543C45.5417 37.4168 45.5417 33.396 42.2917 30.9585C41.1459 30.0835 39.7501 29.5001 38.2709 29.1668M19.0834 22.646C18.8751 22.6251 18.6251 22.6251 18.3959 22.646C16.0047 22.5648 13.7389 21.556 12.0785 19.8334C10.418 18.1107 9.49329 15.8094 9.50008 13.4168C9.50008 8.31262 13.6251 4.16679 18.7501 4.16679C21.2006 4.12259 23.5683 5.05365 25.3323 6.75515C27.0963 8.45665 28.1121 10.7892 28.1563 13.2397C28.2005 15.6902 27.2695 18.0579 25.568 19.8219C23.8665 21.5859 21.5339 22.6018 19.0834 22.646ZM8.66675 30.3335C3.62508 33.7085 3.62508 39.2085 8.66675 42.5626C14.3959 46.396 23.7917 46.396 29.5209 42.5626C34.5626 39.1876 34.5626 33.6876 29.5209 30.3335C23.8126 26.521 14.4167 26.521 8.66675 30.3335V30.3335Z" stroke="#007148" stroke-width="1.5" stroke-linecap="round" stroke-linejoin="round"/>
</svg>
