<svg width="209" height="80" viewBox="0 0 209 80" fill="none" xmlns="http://www.w3.org/2000/svg">
<path d="M53.06 33.06L47.8 47H45.7L40.44 33.06H42.38L46.76 45.08L51.14 33.06H53.06ZM57.3756 41.48C57.3756 40.36 57.6023 39.38 58.0556 38.54C58.509 37.6867 59.129 37.0267 59.9156 36.56C60.7156 36.0933 61.6023 35.86 62.5756 35.86C63.5356 35.86 64.369 36.0667 65.0756 36.48C65.7823 36.8933 66.309 37.4133 66.6556 38.04V36.04H68.4956V47H66.6556V44.96C66.2956 45.6 65.7556 46.1333 65.0356 46.56C64.329 46.9733 63.5023 47.18 62.5556 47.18C61.5823 47.18 60.7023 46.94 59.9156 46.46C59.129 45.98 58.509 45.3067 58.0556 44.44C57.6023 43.5733 57.3756 42.5867 57.3756 41.48ZM66.6556 41.5C66.6556 40.6733 66.489 39.9533 66.1556 39.34C65.8223 38.7267 65.369 38.26 64.7956 37.94C64.2356 37.6067 63.6156 37.44 62.9356 37.44C62.2556 37.44 61.6356 37.6 61.0756 37.92C60.5156 38.24 60.069 38.7067 59.7356 39.32C59.4023 39.9333 59.2356 40.6533 59.2356 41.48C59.2356 42.32 59.4023 43.0533 59.7356 43.68C60.069 44.2933 60.5156 44.7667 61.0756 45.1C61.6356 45.42 62.2556 45.58 62.9356 45.58C63.6156 45.58 64.2356 45.42 64.7956 45.1C65.369 44.7667 65.8223 44.2933 66.1556 43.68C66.489 43.0533 66.6556 42.3267 66.6556 41.5ZM76.3913 32.2V47H74.5713V32.2H76.3913ZM92.4931 41.1C92.4931 41.4467 92.4731 41.8133 92.4331 42.2H83.6731C83.7398 43.28 84.1065 44.1267 84.7731 44.74C85.4531 45.34 86.2731 45.64 87.2331 45.64C88.0198 45.64 88.6731 45.46 89.1931 45.1C89.7265 44.7267 90.0998 44.2333 90.3131 43.62H92.2731C91.9798 44.6733 91.3931 45.5333 90.5131 46.2C89.6331 46.8533 88.5398 47.18 87.2331 47.18C86.1931 47.18 85.2598 46.9467 84.4331 46.48C83.6198 46.0133 82.9798 45.3533 82.5131 44.5C82.0465 43.6333 81.8131 42.6333 81.8131 41.5C81.8131 40.3667 82.0398 39.3733 82.4931 38.52C82.9465 37.6667 83.5798 37.0133 84.3931 36.56C85.2198 36.0933 86.1665 35.86 87.2331 35.86C88.2731 35.86 89.1931 36.0867 89.9931 36.54C90.7931 36.9933 91.4065 37.62 91.8331 38.42C92.2731 39.2067 92.4931 40.1 92.4931 41.1ZM90.6131 40.72C90.6131 40.0267 90.4598 39.4333 90.1531 38.94C89.8465 38.4333 89.4265 38.0533 88.8931 37.8C88.3731 37.5333 87.7931 37.4 87.1531 37.4C86.2331 37.4 85.4465 37.6933 84.7931 38.28C84.1531 38.8667 83.7865 39.68 83.6931 40.72H90.6131ZM117.748 33.06L112.488 47H110.388L105.128 33.06H107.068L111.448 45.08L115.828 33.06H117.748ZM122.063 41.48C122.063 40.36 122.29 39.38 122.743 38.54C123.196 37.6867 123.816 37.0267 124.603 36.56C125.403 36.0933 126.29 35.86 127.263 35.86C128.223 35.86 129.056 36.0667 129.763 36.48C130.47 36.8933 130.996 37.4133 131.343 38.04V36.04H133.183V47H131.343V44.96C130.983 45.6 130.443 46.1333 129.723 46.56C129.016 46.9733 128.19 47.18 127.243 47.18C126.27 47.18 125.39 46.94 124.603 46.46C123.816 45.98 123.196 45.3067 122.743 44.44C122.29 43.5733 122.063 42.5867 122.063 41.48ZM131.343 41.5C131.343 40.6733 131.176 39.9533 130.843 39.34C130.51 38.7267 130.056 38.26 129.483 37.94C128.923 37.6067 128.303 37.44 127.623 37.44C126.943 37.44 126.323 37.6 125.763 37.92C125.203 38.24 124.756 38.7067 124.423 39.32C124.09 39.9333 123.923 40.6533 123.923 41.48C123.923 42.32 124.09 43.0533 124.423 43.68C124.756 44.2933 125.203 44.7667 125.763 45.1C126.323 45.42 126.943 45.58 127.623 45.58C128.303 45.58 128.923 45.42 129.483 45.1C130.056 44.7667 130.51 44.2933 130.843 43.68C131.176 43.0533 131.343 42.3267 131.343 41.5ZM141.079 32.2V47H139.259V32.2H141.079ZM157.181 41.1C157.181 41.4467 157.161 41.8133 157.121 42.2H148.361C148.427 43.28 148.794 44.1267 149.461 44.74C150.141 45.34 150.961 45.64 151.921 45.64C152.707 45.64 153.361 45.46 153.881 45.1C154.414 44.7267 154.787 44.2333 155.001 43.62H156.961C156.667 44.6733 156.081 45.5333 155.201 46.2C154.321 46.8533 153.227 47.18 151.921 47.18C150.881 47.18 149.947 46.9467 149.121 46.48C148.307 46.0133 147.667 45.3533 147.201 44.5C146.734 43.6333 146.501 42.6333 146.501 41.5C146.501 40.3667 146.727 39.3733 147.181 38.52C147.634 37.6667 148.267 37.0133 149.081 36.56C149.907 36.0933 150.854 35.86 151.921 35.86C152.961 35.86 153.881 36.0867 154.681 36.54C155.481 36.9933 156.094 37.62 156.521 38.42C156.961 39.2067 157.181 40.1 157.181 41.1ZM155.301 40.72C155.301 40.0267 155.147 39.4333 154.841 38.94C154.534 38.4333 154.114 38.0533 153.581 37.8C153.061 37.5333 152.481 37.4 151.841 37.4C150.921 37.4 150.134 37.6933 149.481 38.28C148.841 38.8667 148.474 39.68 148.381 40.72H155.301ZM164.803 37.54V44C164.803 44.5333 164.916 44.9133 165.143 45.14C165.37 45.3533 165.763 45.46 166.323 45.46H167.663V47H166.023C165.01 47 164.25 46.7667 163.743 46.3C163.236 45.8333 162.983 45.0667 162.983 44V37.54H161.563V36.04H162.983V33.28H164.803V36.04H167.663V37.54H164.803ZM173.808 34.26C173.461 34.26 173.168 34.14 172.928 33.9C172.688 33.66 172.568 33.3667 172.568 33.02C172.568 32.6733 172.688 32.38 172.928 32.14C173.168 31.9 173.461 31.78 173.808 31.78C174.141 31.78 174.421 31.9 174.648 32.14C174.888 32.38 175.008 32.6733 175.008 33.02C175.008 33.3667 174.888 33.66 174.648 33.9C174.421 34.14 174.141 34.26 173.808 34.26ZM174.688 36.04V47H172.868V36.04H174.688ZM186.13 35.84C187.463 35.84 188.543 36.2467 189.37 37.06C190.197 37.86 190.61 39.02 190.61 40.54V47H188.81V40.8C188.81 39.7067 188.537 38.8733 187.99 38.3C187.443 37.7133 186.697 37.42 185.75 37.42C184.79 37.42 184.023 37.72 183.45 38.32C182.89 38.92 182.61 39.7933 182.61 40.94V47H180.79V36.04H182.61V37.6C182.97 37.04 183.457 36.6067 184.07 36.3C184.697 35.9933 185.383 35.84 186.13 35.84ZM201.103 35.86C202.05 35.86 202.876 36.0667 203.583 36.48C204.303 36.8933 204.836 37.4133 205.183 38.04V36.04H207.023V47.24C207.023 48.24 206.81 49.1267 206.383 49.9C205.956 50.6867 205.343 51.3 204.543 51.74C203.756 52.18 202.836 52.4 201.783 52.4C200.343 52.4 199.143 52.06 198.183 51.38C197.223 50.7 196.656 49.7733 196.483 48.6H198.283C198.483 49.2667 198.896 49.8 199.523 50.2C200.15 50.6133 200.903 50.82 201.783 50.82C202.783 50.82 203.596 50.5067 204.223 49.88C204.863 49.2533 205.183 48.3733 205.183 47.24V44.94C204.823 45.58 204.29 46.1133 203.583 46.54C202.876 46.9667 202.05 47.18 201.103 47.18C200.13 47.18 199.243 46.94 198.443 46.46C197.656 45.98 197.036 45.3067 196.583 44.44C196.13 43.5733 195.903 42.5867 195.903 41.48C195.903 40.36 196.13 39.38 196.583 38.54C197.036 37.6867 197.656 37.0267 198.443 36.56C199.243 36.0933 200.13 35.86 201.103 35.86ZM205.183 41.5C205.183 40.6733 205.016 39.9533 204.683 39.34C204.35 38.7267 203.896 38.26 203.323 37.94C202.763 37.6067 202.143 37.44 201.463 37.44C200.783 37.44 200.163 37.6 199.603 37.92C199.043 38.24 198.596 38.7067 198.263 39.32C197.93 39.9333 197.763 40.6533 197.763 41.48C197.763 42.32 197.93 43.0533 198.263 43.68C198.596 44.2933 199.043 44.7667 199.603 45.1C200.163 45.42 200.783 45.58 201.463 45.58C202.143 45.58 202.763 45.42 203.323 45.1C203.896 44.7667 204.35 44.2933 204.683 43.68C205.016 43.0533 205.183 42.3267 205.183 41.5Z" fill="#343434"/>
<circle cx="13.5" cy="36.5" r="13.5" fill="#007148"/>
<circle cx="18.5" cy="40.5" r="13.5" fill="#007148"/>
</svg>
